<mxfile host="app.diagrams.net" modified="2022-02-09T09:26:31.730Z" agent="5.0 (X11)" etag="PGtI2g5W33s0Ic6C7AYJ" version="16.5.4" type="github">
  <diagram id="K8Lp5al0PaPyf2NPncIj" name="Page-1">
    <mxGraphModel dx="1355" dy="799" grid="1" gridSize="10" guides="1" tooltips="1" connect="1" arrows="1" fold="1" page="1" pageScale="1" pageWidth="1654" pageHeight="2336" math="0" shadow="0">
      <root>
        <mxCell id="0" />
        <mxCell id="1" parent="0" />
        <mxCell id="FZeGeoYi4bfkfWdd8sTY-3" value="" style="edgeStyle=orthogonalEdgeStyle;rounded=0;orthogonalLoop=1;jettySize=auto;html=1;" edge="1" parent="1" source="FZeGeoYi4bfkfWdd8sTY-1" target="FZeGeoYi4bfkfWdd8sTY-2">
          <mxGeometry relative="1" as="geometry" />
        </mxCell>
        <mxCell id="FZeGeoYi4bfkfWdd8sTY-1" value="DP-&amp;gt;objects" style="rounded=0;whiteSpace=wrap;html=1;" vertex="1" parent="1">
          <mxGeometry x="750" y="30" width="120" height="60" as="geometry" />
        </mxCell>
        <mxCell id="FZeGeoYi4bfkfWdd8sTY-5" value="" style="edgeStyle=orthogonalEdgeStyle;rounded=0;orthogonalLoop=1;jettySize=auto;html=1;" edge="1" parent="1" source="FZeGeoYi4bfkfWdd8sTY-2" target="FZeGeoYi4bfkfWdd8sTY-4">
          <mxGeometry relative="1" as="geometry" />
        </mxCell>
        <mxCell id="FZeGeoYi4bfkfWdd8sTY-8" value="" style="edgeStyle=orthogonalEdgeStyle;rounded=0;orthogonalLoop=1;jettySize=auto;html=1;entryX=0.5;entryY=0;entryDx=0;entryDy=0;" edge="1" parent="1" source="FZeGeoYi4bfkfWdd8sTY-2" target="FZeGeoYi4bfkfWdd8sTY-11">
          <mxGeometry relative="1" as="geometry">
            <mxPoint x="810" y="290" as="targetPoint" />
          </mxGeometry>
        </mxCell>
        <mxCell id="FZeGeoYi4bfkfWdd8sTY-2" value="&lt;div&gt;is_static&lt;/div&gt;" style="rhombus;whiteSpace=wrap;html=1;rounded=0;" vertex="1" parent="1">
          <mxGeometry x="770" y="150" width="80" height="60" as="geometry" />
        </mxCell>
        <mxCell id="FZeGeoYi4bfkfWdd8sTY-4" value="ignore" style="whiteSpace=wrap;html=1;rounded=0;" vertex="1" parent="1">
          <mxGeometry x="920" y="170" width="80" height="40" as="geometry" />
        </mxCell>
        <mxCell id="FZeGeoYi4bfkfWdd8sTY-6" value="是" style="text;html=1;align=center;verticalAlign=middle;resizable=0;points=[];autosize=1;strokeColor=none;fillColor=none;" vertex="1" parent="1">
          <mxGeometry x="855" y="170" width="30" height="20" as="geometry" />
        </mxCell>
        <mxCell id="FZeGeoYi4bfkfWdd8sTY-9" value="否" style="text;html=1;align=center;verticalAlign=middle;resizable=0;points=[];autosize=1;strokeColor=none;fillColor=none;" vertex="1" parent="1">
          <mxGeometry x="805" y="230" width="30" height="20" as="geometry" />
        </mxCell>
        <mxCell id="FZeGeoYi4bfkfWdd8sTY-13" value="" style="edgeStyle=orthogonalEdgeStyle;rounded=0;orthogonalLoop=1;jettySize=auto;html=1;" edge="1" parent="1" source="FZeGeoYi4bfkfWdd8sTY-11" target="FZeGeoYi4bfkfWdd8sTY-12">
          <mxGeometry relative="1" as="geometry" />
        </mxCell>
        <mxCell id="FZeGeoYi4bfkfWdd8sTY-16" value="" style="edgeStyle=orthogonalEdgeStyle;rounded=0;orthogonalLoop=1;jettySize=auto;html=1;" edge="1" parent="1" source="FZeGeoYi4bfkfWdd8sTY-11">
          <mxGeometry relative="1" as="geometry">
            <mxPoint x="810" y="410" as="targetPoint" />
          </mxGeometry>
        </mxCell>
        <mxCell id="FZeGeoYi4bfkfWdd8sTY-11" value="&lt;div&gt;is_in_scan_box || is_onlane || is_near_junction || is_pedestrain_in_front_lane&lt;br&gt;&lt;/div&gt;" style="rhombus;whiteSpace=wrap;html=1;" vertex="1" parent="1">
          <mxGeometry x="675" y="270" width="270" height="80" as="geometry" />
        </mxCell>
        <mxCell id="FZeGeoYi4bfkfWdd8sTY-12" value="ignore" style="whiteSpace=wrap;html=1;" vertex="1" parent="1">
          <mxGeometry x="1020" y="285" width="90" height="50" as="geometry" />
        </mxCell>
        <mxCell id="FZeGeoYi4bfkfWdd8sTY-14" value="否" style="text;html=1;align=center;verticalAlign=middle;resizable=0;points=[];autosize=1;strokeColor=none;fillColor=none;" vertex="1" parent="1">
          <mxGeometry x="955" y="290" width="30" height="20" as="geometry" />
        </mxCell>
        <mxCell id="FZeGeoYi4bfkfWdd8sTY-17" value="是" style="text;html=1;align=center;verticalAlign=middle;resizable=0;points=[];autosize=1;strokeColor=none;fillColor=none;" vertex="1" parent="1">
          <mxGeometry x="805" y="370" width="30" height="20" as="geometry" />
        </mxCell>
        <mxCell id="FZeGeoYi4bfkfWdd8sTY-20" value="" style="edgeStyle=orthogonalEdgeStyle;rounded=0;orthogonalLoop=1;jettySize=auto;html=1;" edge="1" parent="1" source="FZeGeoYi4bfkfWdd8sTY-18" target="FZeGeoYi4bfkfWdd8sTY-19">
          <mxGeometry relative="1" as="geometry" />
        </mxCell>
        <mxCell id="FZeGeoYi4bfkfWdd8sTY-23" value="" style="edgeStyle=orthogonalEdgeStyle;rounded=0;orthogonalLoop=1;jettySize=auto;html=1;" edge="1" parent="1" source="FZeGeoYi4bfkfWdd8sTY-18" target="FZeGeoYi4bfkfWdd8sTY-22">
          <mxGeometry relative="1" as="geometry" />
        </mxCell>
        <mxCell id="FZeGeoYi4bfkfWdd8sTY-18" value="&lt;div&gt;ego_to_obj_dis &amp;lt; threshold&lt;/div&gt;&lt;div&gt;障碍物距自车距离&lt;br&gt;&lt;/div&gt;" style="rhombus;whiteSpace=wrap;html=1;" vertex="1" parent="1">
          <mxGeometry x="713.5" y="410" width="193" height="80" as="geometry" />
        </mxCell>
        <mxCell id="FZeGeoYi4bfkfWdd8sTY-19" value="caution" style="whiteSpace=wrap;html=1;" vertex="1" parent="1">
          <mxGeometry x="970" y="427.5" width="90" height="45" as="geometry" />
        </mxCell>
        <mxCell id="FZeGeoYi4bfkfWdd8sTY-21" value="是" style="text;html=1;align=center;verticalAlign=middle;resizable=0;points=[];autosize=1;strokeColor=none;fillColor=none;" vertex="1" parent="1">
          <mxGeometry x="925" y="430" width="30" height="20" as="geometry" />
        </mxCell>
        <mxCell id="FZeGeoYi4bfkfWdd8sTY-22" value="normal" style="whiteSpace=wrap;html=1;" vertex="1" parent="1">
          <mxGeometry x="760" y="540" width="100" height="40" as="geometry" />
        </mxCell>
        <mxCell id="FZeGeoYi4bfkfWdd8sTY-24" value="否" style="text;html=1;align=center;verticalAlign=middle;resizable=0;points=[];autosize=1;strokeColor=none;fillColor=none;" vertex="1" parent="1">
          <mxGeometry x="812" y="500" width="30" height="20" as="geometry" />
        </mxCell>
      </root>
    </mxGraphModel>
  </diagram>
</mxfile>
